<svg xmlns="http://www.w3.org/2000/svg" width="368" height="448" viewBox="0 0 368 448">
  <rect width="368" height="448" fill="#090b10"/>
  <text x="18" y="38" fill="#f4f7fb" font-family="Arial, sans-serif" font-size="24" font-weight="700">GoPro Remote</text>
  <text x="20" y="64" fill="#96a2b4" font-family="Arial, sans-serif" font-size="14">Display online</text>
  <rect x="252" y="24" width="52" height="9" rx="4" fill="#28303c"/>
  <rect x="252" y="24" width="38" height="9" rx="4" fill="#47d16c"/>
  <text x="313" y="28" fill="#c3ccd8" font-family="Arial, sans-serif" font-size="14">74%</text>
  <text x="300" y="48" fill="#5a6472" font-family="Arial, sans-serif" font-size="14">WIFI --</text>
  <rect x="20" y="76" width="328" height="150" rx="18" fill="#152033" stroke="#2b3a52"/>
  <text x="114" y="156" fill="#dde7f5" font-family="Arial, sans-serif" font-size="14">JPEG preview standby</text>
  <text x="20" y="252" fill="#c3ccd8" font-family="Arial, sans-serif" font-size="14">Camera: not paired</text>
  <text x="20" y="274" fill="#96a2b4" font-family="Arial, sans-serif" font-size="14">WiFi: idle</text>
  <rect x="18" y="284" width="136" height="86" rx="8" fill="#151922" stroke="#343b49"/>
  <text x="46" y="307" fill="#96a2b4" font-family="Arial, sans-serif" font-size="14">Photo</text>
  <rect x="30" y="314" width="112" height="24" rx="4" fill="#252d3b"/>
  <text x="48" y="331" fill="#f4f7fb" font-family="Arial, sans-serif" font-size="14">Video</text>
  <text x="46" y="358" fill="#96a2b4" font-family="Arial, sans-serif" font-size="14">TimeWarp</text>
  <rect x="166" y="284" width="88" height="48" rx="14" fill="#2c7be5"/>
  <text x="193" y="314" fill="#fff" font-family="Arial, sans-serif" font-size="14" font-weight="700">Wake</text>
  <rect x="260" y="284" width="88" height="48" rx="14" fill="#7c4dff"/>
  <text x="290" y="314" fill="#fff" font-family="Arial, sans-serif" font-size="14" font-weight="700">Pair</text>
  <rect x="166" y="340" width="88" height="48" rx="14" fill="#009a88"/>
  <text x="193" y="370" fill="#fff" font-family="Arial, sans-serif" font-size="14" font-weight="700">WiFi</text>
  <rect x="260" y="340" width="88" height="48" rx="14" fill="#e03131"/>
  <text x="289" y="370" fill="#fff" font-family="Arial, sans-serif" font-size="14" font-weight="700">REC</text>
  <text x="115" y="414" fill="#96a2b4" font-family="Arial, sans-serif" font-size="14">Touch controls ready</text>
</svg>
