<svg xmlns="http://www.w3.org/2000/svg" width="368" height="448" viewBox="0 0 368 448">
  <rect width="368" height="448" fill="#090b10"/>
  <text x="18" y="38" fill="#f4f7fb" font-family="Arial, sans-serif" font-size="24" font-weight="700">GoPro</text>
  <text x="20" y="60" fill="#96a2b4" font-family="Arial, sans-serif" font-size="14">GoPro WiFi connected</text>
  <rect x="252" y="24" width="52" height="9" rx="4" fill="#28303c"/>
  <rect x="252" y="24" width="38" height="9" rx="4" fill="#47d16c"/>
  <text x="313" y="29" fill="#c3ccd8" font-family="Arial, sans-serif" font-size="14">74%</text>
  <text x="300" y="49" fill="#47d16c" font-family="Arial, sans-serif" font-size="14">WIFI ON</text>
  <rect x="20" y="76" width="328" height="150" rx="8" fill="#101827" stroke="#2b3a52"/>
  <rect x="32" y="88" width="304" height="126" rx="4" fill="#172336"/>
  <path d="M32 198 L112 145 L160 176 L218 128 L336 204 L336 214 L32 214 Z" fill="#2c7be5" opacity="0.45"/>
  <circle cx="292" cy="112" r="18" fill="#f0b429" opacity="0.8"/>
  <rect x="272" y="88" width="76" height="28" rx="8" fill="#1b2638"/>
  <circle cx="292" cy="102" r="5" fill="#e03131"/>
  <text x="300" y="107" fill="#f4f7fb" font-family="Arial, sans-serif" font-size="14" font-weight="700">REC</text>
  <text x="22" y="104" fill="#f4f7fb" font-family="Arial, sans-serif" font-size="18" font-weight="700">9H:59</text>
  <text x="22" y="253" fill="#f4f7fb" font-family="Arial, sans-serif" font-size="18">Video</text>
  <text x="22" y="277" fill="#c3ccd8" font-family="Arial, sans-serif" font-size="14">16:9 | 4K | 60 | W</text>
  <text x="20" y="304" fill="#c3ccd8" font-family="Arial, sans-serif" font-size="14">Camera AP: LEFTCAM</text>
  <text x="20" y="326" fill="#96a2b4" font-family="Arial, sans-serif" font-size="14">WiFi: 10.5.5.100</text>
  <rect x="20" y="354" width="328" height="48" rx="8" fill="#7c4dff"/>
  <text x="154" y="383" fill="#fff" font-family="Arial, sans-serif" font-size="14" font-weight="700">Pair New</text>
  <text x="98" y="424" fill="#96a2b4" font-family="Arial, sans-serif" font-size="14">Connected to GoPro WiFi</text>
</svg>
