<svg xmlns="http://www.w3.org/2000/svg" width="368" height="448" viewBox="0 0 368 448">
  <rect width="368" height="448" fill="#090b10"/>
  <text x="18" y="38" fill="#f4f7fb" font-family="Arial, sans-serif" font-size="24" font-weight="700">GoPro</text>
  <text x="20" y="60" fill="#96a2b4" font-family="Arial, sans-serif" font-size="14">Ready</text>
  <rect x="252" y="24" width="52" height="9" rx="4" fill="#28303c"/>
  <rect x="252" y="24" width="38" height="9" rx="4" fill="#47d16c"/>
  <text x="313" y="29" fill="#c3ccd8" font-family="Arial, sans-serif" font-size="14">74%</text>
  <text x="300" y="49" fill="#5a6472" font-family="Arial, sans-serif" font-size="14">WIFI --</text>
  <text x="20" y="91" fill="#f4f7fb" font-family="Arial, sans-serif" font-size="18" font-weight="700">Pro Controls</text>
  <text x="20" y="116" fill="#96a2b4" font-family="Arial, sans-serif" font-size="14">Advanced settings exposed by Open GoPro</text>
  <g fill="#1b2638" font-family="Arial, sans-serif" font-size="13" font-weight="700">
    <rect x="20" y="152" width="156" height="34" rx="8"/><text x="70" y="174" fill="#f4f7fb">Bit Depth</text>
    <rect x="192" y="152" width="156" height="34" rx="8"/><text x="245" y="174" fill="#f4f7fb">Bit Rate</text>
    <rect x="20" y="192" width="156" height="34" rx="8"/><text x="69" y="214" fill="#f4f7fb">Max Lens</text>
    <rect x="192" y="192" width="156" height="34" rx="8"/><text x="228" y="214" fill="#f4f7fb">Max Lens Mod</text>
    <rect x="20" y="232" width="156" height="34" rx="8"/><text x="49" y="254" fill="#f4f7fb">Max Lens Enable</text>
    <rect x="192" y="232" width="156" height="34" rx="8"/><text x="231" y="254" fill="#f4f7fb">Media Format</text>
    <rect x="20" y="272" width="156" height="34" rx="8"/><text x="55" y="294" fill="#f4f7fb">Photo Output</text>
    <rect x="192" y="272" width="156" height="34" rx="8"/><text x="233" y="294" fill="#f4f7fb">Anti-Flicker</text>
    <rect x="20" y="312" width="156" height="34" rx="8"/><text x="61" y="334" fill="#f4f7fb">Performance</text>
    <rect x="192" y="312" width="156" height="34" rx="8"/><text x="231" y="334" fill="#f4f7fb">Control Mode</text>
    <rect x="20" y="352" width="156" height="34" rx="8"/><text x="61" y="374" fill="#f4f7fb">Video Mode</text>
    <rect x="192" y="352" width="156" height="34" rx="8"/><text x="249" y="374" fill="#f4f7fb">Profiles</text>
  </g>
</svg>
